<svg xmlns="http://www.w3.org/2000/svg" width="648.47" height="72.844"><g transform="translate(-410.954 -534.504)"><path d="M478.428 534.607c-3.606.216-6.7.7-6.831.717l-3.643.571 1.327 3.44a79.7 79.7 0 0 0 2.794 6.274c3.174 6.346 5.3 8.1 6.628 8.862a10.726 10.726 0 0 0 12.35-1.158 25.183 25.183 0 0 1 7.146 14.49l.02.148h-22.675a24.969 24.969 0 0 0-9.536-14.074 11.566 11.566 0 0 0-5.35-13.182c-3-1.731-8.3-1.635-12.032-1.412a88.23 88.23 0 0 0-7.564.794l-3.642.571 1.327 3.44a86.43 86.43 0 0 0 3.094 6.947c1.671 3.341 4.24 7.983 7.239 9.715a11.6 11.6 0 0 0 13.865-1.733 19.025 19.025 0 0 1 6.4 8.935H445.27a12.654 12.654 0 0 0-12.276-9.658c-1.046 0-4.227 0-12.29 5.321a97.379 97.379 0 0 0-6.88 5l-2.87 2.312 2.869 2.315c.127.1 3.146 2.532 6.88 5 8.063 5.321 11.245 5.321 12.29 5.321a12.654 12.654 0 0 0 12.276-9.658h24.072a19.025 19.025 0 0 1-6.4 8.935 11.6 11.6 0 0 0-13.865-1.733c-3 1.731-5.567 6.373-7.239 9.715a88.054 88.054 0 0 0-3.094 6.948l-1.327 3.44 3.642.571c.144.022 3.57.555 7.564.794 3.732.218 9.032.314 12.032-1.417a11.619 11.619 0 0 0 5.791-10.035 11.525 11.525 0 0 0-.441-3.147 24.97 24.97 0 0 0 9.54-14.074h22.676l-.02.148a25.183 25.183 0 0 1-7.146 14.489 10.726 10.726 0 0 0-12.35-1.157c-1.325.765-3.454 2.516-6.628 8.862a79.7 79.7 0 0 0-2.794 6.274l-1.328 3.44 3.642.571c.13.02 3.225.5 6.831.717 7.083.424 9.664-.544 10.989-1.309a10.75 10.75 0 0 0 5.358-9.285 10.675 10.675 0 0 0-.436-3.013 31.107 31.107 0 0 0 9.761-18.8l.126-.94h32.971v-5.947h-32.971l-.126-.939a31.107 31.107 0 0 0-9.761-18.8 10.7 10.7 0 0 0-4.921-12.3c-1.325-.765-3.906-1.733-10.989-1.31Z" fill="#94de1d"/><rect width="25" height="6" rx="3" transform="translate(582 568)" fill="#94de1d"/><rect width="25" height="6" rx="3" transform="translate(649 568)" fill="#94de1d"/><rect width="25" height="6" rx="3" transform="translate(729 568)" fill="#94de1d"/><path d="M552.204 591.84a26.219 26.219 0 0 1-9.24-1.59 21.354 21.354 0 0 1-7.35-4.53 21.1 21.1 0 0 1-4.83-6.93 21.755 21.755 0 0 1-1.74-8.79 21.755 21.755 0 0 1 1.74-8.79 20.89 20.89 0 0 1 4.86-6.93 21.618 21.618 0 0 1 7.41-4.53 26.823 26.823 0 0 1 9.39-1.59 27.028 27.028 0 0 1 10.62 1.98 19.853 19.853 0 0 1 7.74 5.7l-7.56 6.84a15.1 15.1 0 0 0-4.65-3.51 12.89 12.89 0 0 0-5.55-1.17 13.8 13.8 0 0 0-4.92.84 10.342 10.342 0 0 0-3.78 2.43 11.269 11.269 0 0 0-2.43 3.78 13.315 13.315 0 0 0-.87 4.95 13.207 13.207 0 0 0 .87 4.86 11.2 11.2 0 0 0 2.43 3.81 10.73 10.73 0 0 0 3.75 2.46 12.972 12.972 0 0 0 4.83.87 15.706 15.706 0 0 0 5.16-.87 16.939 16.939 0 0 0 5.1-2.97l6.66 8.34a27.27 27.27 0 0 1-8.34 3.96 33.171 33.171 0 0 1-9.3 1.38Zm7.14-6.9V569.1h10.5v17.4Zm42.06 6.06v-42h19.2a24.24 24.24 0 0 1 9.93 1.86 14.519 14.519 0 0 1 6.45 5.37 14.915 14.915 0 0 1 2.28 8.31 14.513 14.513 0 0 1-2.28 8.19 14.473 14.473 0 0 1-6.45 5.28 24.588 24.588 0 0 1-9.93 1.83h-12.6l5.28-4.98V591Zm25.98 0-10.44-15.3h12.66l10.5 15.3Zm-14.1-14.88-5.28-5.46h11.88q3.72 0 5.55-1.62a5.7 5.7 0 0 0 1.83-4.5 5.771 5.771 0 0 0-1.83-4.56q-1.83-1.62-5.55-1.62h-11.88l5.28-5.46Zm77.7 15.72a25.957 25.957 0 0 1-9.3-1.62 22.144 22.144 0 0 1-7.41-4.59 21.093 21.093 0 0 1-4.89-6.93 21.391 21.391 0 0 1-1.74-8.7 21.391 21.391 0 0 1 1.74-8.7 21.093 21.093 0 0 1 4.89-6.93 22.144 22.144 0 0 1 7.41-4.59 25.957 25.957 0 0 1 9.3-1.62 25.89 25.89 0 0 1 9.33 1.62 21.878 21.878 0 0 1 7.35 4.59 21.7 21.7 0 0 1 4.89 6.93 21.078 21.078 0 0 1 1.77 8.7 21.287 21.287 0 0 1-1.77 8.73 21.267 21.267 0 0 1-4.89 6.93 22.125 22.125 0 0 1-7.35 4.56 25.89 25.89 0 0 1-9.33 1.62Zm0-9.84a11.774 11.774 0 0 0 4.47-.84 10.326 10.326 0 0 0 3.6-2.43 11.445 11.445 0 0 0 2.4-3.81 13.378 13.378 0 0 0 .87-4.92 13.315 13.315 0 0 0-.87-4.95 11.513 11.513 0 0 0-2.4-3.78 10.327 10.327 0 0 0-3.6-2.43 11.775 11.775 0 0 0-4.47-.84 11.774 11.774 0 0 0-4.47.84 10.326 10.326 0 0 0-3.6 2.43 11.513 11.513 0 0 0-2.4 3.78 13.315 13.315 0 0 0-.87 4.95 13.378 13.378 0 0 0 .87 4.92 11.444 11.444 0 0 0 2.4 3.81 10.326 10.326 0 0 0 3.6 2.43 11.774 11.774 0 0 0 4.47.84Zm62.52 9-13.62-42h12.24l11.46 36.36h-6.18l12.06-36.36h10.92l11.4 36.36h-5.94l11.82-36.36h11.34l-13.62 42h-12.72l-9.72-30.9h3.42l-10.14 30.9Z" fill="#fff"/><path d="M849.364 591v-39.24h-15.12V549h33.3v2.76h-15.12V591Zm49.74 0v-42h15.06a22.2 22.2 0 0 1 9.06 1.68 13.026 13.026 0 0 1 5.82 4.83 13.774 13.774 0 0 1 2.04 7.65 13.549 13.549 0 0 1-2.04 7.53 13.214 13.214 0 0 1-5.82 4.86 21.863 21.863 0 0 1-9.06 1.71h-13.38l1.38-1.44V591Zm29.16 0-10.92-15.24h3.48l10.92 15.24Zm-26.1-15-1.38-1.44h13.38q6.78 0 10.29-3a10.453 10.453 0 0 0 3.51-8.4q0-5.46-3.51-8.43t-10.29-2.97h-13.38l1.38-1.5Zm66.84-7.68h22.74v2.7h-22.74Zm.36 19.92h25.92V591h-28.98v-42h28.08v2.76h-25.02Zm63.78-19.92h22.74v2.7h-22.74Zm.36 19.92h25.92V591h-28.98v-42h28.08v2.76h-25.02Z" fill="#aeb4a6"/></g></svg>